<?xml version="1.0" encoding="UTF-8"?>
<svg width="24" height="24" viewBox="0 0 24 24" xmlns="http://www.w3.org/2000/svg" aria-hidden="true">
  <path fill="#25D366" d="M20.52 3.48A11.94 11.94 0 0012.02 0C5.39 0 .02 5.37.02 12a11.93 11.93 0 001.78 6.25L0 24l5.92-1.55A11.95 11.95 0 0012.02 24c6.63 0 12-5.37 12-12 0-3.2-1.25-6.21-3.5-8.52zM12.02 22a9.93 9.93 0 01-5.06-1.4l-.36-.22-3.51.92.94-3.42-.23-.35A9.94 9.94 0 112.08 12c0 5.48 4.46 9.94 9.94 9.94z"/>
  <path fill="#fff" d="M17.57 14.1c-.27-.13-1.6-.79-1.85-.88-.25-.09-.43-.13-.6.13-.18.27-.69.88-.85 1.06-.16.18-.31.2-.57.07-.27-.13-1.12-.41-2.13-1.31-.79-.7-1.33-1.57-1.49-1.84-.16-.27-.02-.42.11-.55.11-.11.25-.29.38-.44.13-.16.18-.27.27-.45.09-.18.04-.34-.02-.48-.07-.13-.6-1.45-.83-1.98-.22-.53-.45-.45-.6-.45h-.51c-.16 0-.42.06-.64.29-.22.22-.86.84-.86 2.05s.88 2.38 1 2.55c.13.18 1.74 2.66 4.21 3.73.59.26 1.05.41 1.41.53.59.19 1.13.16 1.56.1.47-.07 1.6-.65 1.83-1.27.22-.61.22-1.13.16-1.24-.07-.11-.25-.18-.52-.31z"/>
</svg>
